# xmcd
#
# Track frame offsets: 
#        150
#        9475
#        28140
#        44357
#        55055
#        81320
#        92422
#        107645
#        122632
#        143772
#        163630
#        186537
#
# Disc length: 2664 seconds
#
# Revision: 7
# Processed by: cddbd v1.5.2PL0 Copyright (c) Steve Scherf et al.
# Submitted via: ExactAudioCopy v0.99pb4
#
DISCID=9a0a660c
DTITLE=Laurie Anderson - Life On A String
DYEAR=2001
DGENRE=Electronic
TTITLE0=One White Whale
TTITLE1=The Island Where I Come From
TTITLE2=Pieces And Parts
TTITLE3=Here With You
TTITLE4=Slip Away
TTITLE5=My Compensation
TTITLE6=Dark Angel
TTITLE7=Broken
TTITLE8=Washington Street
TTITLE9=Statue Of Liberty
TTITLE10=One Beautiful Evening
TTITLE11=Life On A String
EXTD=YEAR: 2001
EXTT0=
EXTT1=
EXTT2=
EXTT3=
EXTT4=
EXTT5=
EXTT6=
EXTT7=
EXTT8=
EXTT9=
EXTT10=
EXTT11=
PLAYORDER=
